<?xml version="1.0" encoding="UTF-8" standalone="no"?>
<!-- Created with Inkscape (http://www.inkscape.org/) -->

<svg
   width="210mm"
   height="297mm"
   viewBox="0 0 210 297"
   version="1.1"
   id="svg10116"
   sodipodi:docname="Connector_background.svg"
   inkscape:version="1.1.2 (0a00cf5339, 2022-02-04)"
   xmlns:inkscape="http://www.inkscape.org/namespaces/inkscape"
   xmlns:sodipodi="http://sodipodi.sourceforge.net/DTD/sodipodi-0.dtd"
   xmlns="http://www.w3.org/2000/svg"
   xmlns:svg="http://www.w3.org/2000/svg">
  <sodipodi:namedview
     id="namedview10118"
     pagecolor="#ffffff"
     bordercolor="#666666"
     borderopacity="1.0"
     inkscape:pageshadow="2"
     inkscape:pageopacity="0.0"
     inkscape:pagecheckerboard="0"
     inkscape:document-units="mm"
     showgrid="false"
     inkscape:zoom="1.4218739"
     inkscape:cx="397.0113"
     inkscape:cy="443.07727"
     inkscape:window-width="2880"
     inkscape:window-height="1592"
     inkscape:window-x="1920"
     inkscape:window-y="0"
     inkscape:window-maximized="1"
     inkscape:current-layer="layer1" />
  <defs
     id="defs10113" />
  <g
     inkscape:label="Layer 1"
     inkscape:groupmode="layer"
     id="layer1">
    <rect
       style="fill:#000000;stroke:none;stroke-width:0.100979;stroke-linecap:round"
       id="rect2649"
       width="59.899021"
       height="99.899017"
       x="74.075272"
       y="49.887466"
       ry="3.951422"
       rx="4.0664873" />
    <rect
       style="fill:#ffffff;stroke:none;stroke-width:0.140186;stroke-linecap:round"
       id="rect1059"
       width="10.859814"
       height="13.859815"
       x="109.47743"
       y="67.602203"
       ry="1.3340687"
       rx="1.3307379" />
    <circle
       style="fill:#ffffff;stroke:none;stroke-width:0.23864;stroke-linecap:round"
       id="path2615"
       cx="115.17307"
       cy="102.79141"
       r="5.8806796" />
    <circle
       style="fill:#ffffff;stroke:none;stroke-width:0.318187;stroke-linecap:round"
       id="circle6283"
       cx="115.37065"
       cy="126.79898"
       r="7.8409066" />
    <circle
       style="fill:#ffffff;stroke:none;stroke-width:0.23864;stroke-linecap:round"
       id="circle8985"
       cx="91.914139"
       cy="102.65997"
       r="5.8806796" />
    <path
       style="fill:#ffffff;stroke-width:0.0421396"
       d="m 101.13484,77.150238 v -0.22829 l -0.72691,-0.0144 c -1.017692,-0.0201 -0.957226,0.016 -2.215437,-1.32282 -0.523266,-0.55678 -0.712269,-0.73089 -0.836821,-0.77092 -0.116884,-0.0375 -0.528774,-0.0483 -1.505862,-0.0393 l -1.34497,0.0124 -0.05778,0.17338 c -0.206304,0.61907 -1.043034,0.94479 -1.638591,0.63787 -0.422258,-0.21761 -0.646953,-0.58712 -0.648445,-1.06635 -0.0015,-0.49386 0.248972,-0.87585 0.713307,-1.08767 0.579049,-0.26416 1.376828,0.0723 1.573654,0.6637 l 0.05771,0.17339 0.439044,0.013 c 0.241474,0.007 0.507019,-0.007 0.5901,-0.0312 0.107204,-0.0314 0.278472,-0.17569 0.589955,-0.49698 1.285167,-1.32564 1.396729,-1.42847 1.651993,-1.5228 0.211207,-0.078 0.333553,-0.0901 0.9131,-0.0901 h 0.669217 l 0.09196,-0.1488 c 0.119325,-0.19307 0.360297,-0.31474 0.623376,-0.31474 0.25341,0 0.45109,0.12126 0.58599,0.35943 0.2579,0.45534 -0.0707,1.03118 -0.58848,1.03118 -0.272688,0 -0.477394,-0.1012 -0.609986,-0.30156 l -0.107189,-0.16198 h -0.644821 c -0.354652,0 -0.698204,0.0201 -0.763448,0.0447 -0.144663,0.0545 -0.231112,0.13629 -1.033311,0.97716 l -0.633176,0.6637 h 3.67103 3.671031 v -0.27391 c 0,-0.17304 0.0173,-0.27391 0.0469,-0.27391 0.0422,0 1.27545,0.69006 1.35578,0.7586 0.0339,0.0289 -1.27396,0.80057 -1.35689,0.80057 -0.0283,0 -0.0458,-0.10485 -0.0458,-0.27391 v -0.27391 h -2.76626 -2.766263 l 0.226105,0.24231 c 0.850562,0.91149 1.232796,1.29091 1.371975,1.36186 0.137197,0.0699 0.250443,0.0814 0.803943,0.0814 h 0.64426 v -0.23177 -0.23177 h 0.71637 0.71637 v 0.69531 0.6953 h -0.71637 -0.71637 z"
       id="path1045" />
    <g
       id="g909"
       transform="translate(14.309409,-22.251877)">
      <path
         style="fill:#ffffff;stroke-width:0.0106191"
         d="M 86.72391,114.78552 V 114.382 h 1.019432 1.019432 v 0.40352 0.40353 H 87.743342 86.72391 Z m 4.077729,0 V 114.382 h 1.019432 1.019431 v 0.40352 0.40353 h -1.019431 -1.019432 z m 4.077728,0 V 114.382 h 1.019433 1.019431 v 0.40352 0.40353 H 95.8988 94.879367 Z m -8.155457,-1.63003 v -0.40883 h 5.097161 5.09716 v 0.40883 0.40884 h -5.09716 -5.097161 z"
         id="path1157" />
      <text
         xml:space="preserve"
         style="font-style:normal;font-variant:normal;font-weight:normal;font-stretch:normal;font-size:4.23333px;line-height:1.25;font-family:sans-serif;-inkscape-font-specification:'sans-serif, Normal';font-variant-ligatures:normal;font-variant-caps:normal;font-variant-numeric:normal;font-variant-east-asian:normal;fill:#ffffff;fill-opacity:1;stroke:none;stroke-width:0.264583"
         x="88.278542"
         y="119.64751"
         id="text4419"><tspan
           sodipodi:role="line"
           id="tspan4417"
           style="font-style:normal;font-variant:normal;font-weight:normal;font-stretch:normal;font-size:4.23333px;font-family:sans-serif;-inkscape-font-specification:'sans-serif, Normal';font-variant-ligatures:normal;font-variant-caps:normal;font-variant-numeric:normal;font-variant-east-asian:normal;fill:#ffffff;stroke-width:0.264583"
           x="88.278542"
           y="119.64751">12v</tspan></text>
    </g>
    <text
       xml:space="preserve"
       style="font-style:normal;font-variant:normal;font-weight:normal;font-stretch:normal;font-size:4.23333px;line-height:1.25;font-family:sans-serif;-inkscape-font-specification:'sans-serif, Normal';font-variant-ligatures:normal;font-variant-caps:normal;font-variant-numeric:normal;font-variant-east-asian:normal;fill:#ffffff;fill-opacity:1;stroke:none;stroke-width:0.264583"
       x="111.5573"
       y="139.76865"
       id="text6997"><tspan
         sodipodi:role="line"
         id="tspan6995"
         style="font-style:normal;font-variant:normal;font-weight:normal;font-stretch:normal;font-size:4.23333px;font-family:sans-serif;-inkscape-font-specification:'sans-serif, Normal';font-variant-ligatures:normal;font-variant-caps:normal;font-variant-numeric:normal;font-variant-east-asian:normal;fill:#ffffff;stroke-width:0.264583"
         x="111.5573"
         y="139.76865">MIDI</tspan><tspan
         sodipodi:role="line"
         style="font-style:normal;font-variant:normal;font-weight:normal;font-stretch:normal;font-size:4.23333px;font-family:sans-serif;-inkscape-font-specification:'sans-serif, Normal';font-variant-ligatures:normal;font-variant-caps:normal;font-variant-numeric:normal;font-variant-east-asian:normal;fill:#ffffff;stroke-width:0.264583"
         x="111.5573"
         y="145.06032"
         id="tspan6999">Out</tspan></text>
    <text
       xml:space="preserve"
       style="font-style:normal;font-variant:normal;font-weight:normal;font-stretch:normal;font-size:4.23333px;line-height:1.25;font-family:sans-serif;-inkscape-font-specification:'sans-serif, Normal';font-variant-ligatures:normal;font-variant-caps:normal;font-variant-numeric:normal;font-variant-east-asian:normal;fill:#ffffff;fill-opacity:1;stroke:none;stroke-width:0.264583"
       x="83.575737"
       y="114.86918"
       id="text8191"><tspan
         sodipodi:role="line"
         id="tspan8189"
         style="font-style:normal;font-variant:normal;font-weight:normal;font-stretch:normal;font-size:4.23333px;font-family:sans-serif;-inkscape-font-specification:'sans-serif, Normal';font-variant-ligatures:normal;font-variant-caps:normal;font-variant-numeric:normal;font-variant-east-asian:normal;fill:#ffffff;stroke-width:0.264583"
         x="83.575737"
         y="114.86918">Sustain</tspan></text>
  </g>
</svg>
