<?xml version="1.0" encoding="UTF-8" standalone="no"?>
<!-- Created with Inkscape (http://www.inkscape.org/) -->

<svg
   width="1279.1252mm"
   height="1248.3263mm"
   viewBox="0 0 1279.1252 1248.3263"
   version="1.1"
   id="svg305"
   inkscape:version="1.2.2 (b0a8486541, 2022-12-01)"
   sodipodi:docname="cutting_plan.svg"
   xmlns:inkscape="http://www.inkscape.org/namespaces/inkscape"
   xmlns:sodipodi="http://sodipodi.sourceforge.net/DTD/sodipodi-0.dtd"
   xmlns="http://www.w3.org/2000/svg"
   xmlns:svg="http://www.w3.org/2000/svg">
  <sodipodi:namedview
     id="namedview307"
     pagecolor="#ffffff"
     bordercolor="#666666"
     borderopacity="1.0"
     inkscape:showpageshadow="2"
     inkscape:pageopacity="0.0"
     inkscape:pagecheckerboard="0"
     inkscape:deskcolor="#d1d1d1"
     inkscape:document-units="mm"
     showgrid="false"
     inkscape:zoom="0.2102413"
     inkscape:cx="972.69186"
     inkscape:cy="1914.4669"
     inkscape:window-width="2880"
     inkscape:window-height="1592"
     inkscape:window-x="0"
     inkscape:window-y="0"
     inkscape:window-maximized="1"
     inkscape:current-layer="layer1" />
  <defs
     id="defs302" />
  <g
     inkscape:label="Layer 1"
     inkscape:groupmode="layer"
     id="layer1"
     transform="translate(86.417762,-537.50928)">
    <g
       id="g1118">
      <path
         id="path589"
         style="fill:none;stroke:#000000;stroke-width:2.63907px;stroke-linecap:butt;stroke-linejoin:miter;stroke-opacity:1"
         d="m -37.167957,591.75132 c 143.111937,-6.8338 510.049387,-34.3531 395.217987,81.01278 -12.779,13.2407 -55.7452,44.4383 -42.6837,63.0528 77.1296,102.692 99.7164,233.9916 61.8238,354.4037 -37.8926,120.4123 -131.6003,215.1149 -253.77829,254.5396 -26.769427,10.1004 -49.918027,-35.3245 -26.668377,-44.5523 115.011467,-38.1694 196.447867,-132.9398 216.343967,-250.3463 19.8961,-117.4063 -36.4487,-265.223 -123.5755,-309.1386 -32.98223,-20.8337 -118.159337,6.8581 -159.961837,52.4176 -41.80258,45.5595 -35.6282206,92.0833 -21.1519906,162.4677 46.8517706,75.0438 -20.3471694,86.3866 -45.9202494,56.9351 -18.87396,-83.6602 -44.25863,-152.4685 -6.00432,-218.2548 10.91152,-18.7649 23.55156,-35.0925 39.4133194,-50.3845 C 15.072493,730.1053 22.745853,660.3904 -37.167957,591.75132 Z"
         sodipodi:nodetypes="cccsccscsccscc" />
      <rect
         style="font-variation-settings:normal;opacity:1;fill:none;fill-opacity:1;fill-rule:evenodd;stroke:#000000;stroke-width:0.895619;stroke-linecap:round;stroke-linejoin:bevel;stroke-miterlimit:4;stroke-dasharray:none;stroke-dashoffset:0;stroke-opacity:1;stop-color:#000000;stop-opacity:1"
         id="rect1093"
         width="99.104378"
         height="59.104382"
         x="27.77487"
         y="619.58057" />
      <rect
         style="font-variation-settings:normal;opacity:1;fill:none;fill-opacity:1;fill-rule:evenodd;stroke:#000000;stroke-width:1.31869;stroke-linecap:round;stroke-linejoin:bevel;stroke-miterlimit:4;stroke-dasharray:none;stroke-dashoffset:0;stroke-opacity:1;stop-color:#000000;stop-opacity:1"
         id="rect1095"
         width="128.68132"
         height="98.681313"
         x="153.07866"
         y="604.37122" />
      <g
         id="g1101"
         transform="translate(-39.245066,-989.17539)">
        <path
           style="fill:none;stroke:#000000;stroke-width:0.264583px;stroke-linecap:butt;stroke-linejoin:miter;stroke-opacity:1"
           d="M 75.916726,1617.6507 154.97111,1661.03"
           id="path1097" />
        <path
           style="fill:none;stroke:#000000;stroke-width:0.264583px;stroke-linecap:butt;stroke-linejoin:miter;stroke-opacity:1"
           d="M 154.97111,1617.6507 75.916726,1661.03"
           id="path1099" />
      </g>
      <g
         id="g1107"
         transform="translate(102.79366,-987.30431)">
        <path
           style="fill:none;stroke:#000000;stroke-width:0.264583px;stroke-linecap:butt;stroke-linejoin:miter;stroke-opacity:1"
           d="M 75.916726,1617.6507 154.97111,1661.03"
           id="path1103" />
        <path
           style="fill:none;stroke:#000000;stroke-width:0.264583px;stroke-linecap:butt;stroke-linejoin:miter;stroke-opacity:1"
           d="M 154.97111,1617.6507 75.916726,1661.03"
           id="path1105" />
      </g>
    </g>
    <rect
       style="font-variation-settings:normal;opacity:1;vector-effect:none;fill:none;fill-opacity:1;fill-rule:evenodd;stroke:#008000;stroke-width:1.23535;stroke-linecap:round;stroke-linejoin:bevel;stroke-miterlimit:4;stroke-dasharray:none;stroke-dashoffset:0;stroke-opacity:1;-inkscape-stroke:none;stop-color:#000000;stop-opacity:1"
       id="rect569"
       width="598.76465"
       height="1198.7646"
       x="-85.800087"
       y="538.12695" />
    <path
       id="path587"
       style="fill:none;stroke:#000000;stroke-width:2.63907px;stroke-linecap:butt;stroke-linejoin:miter;stroke-opacity:1"
       d="m 365.4744,1706.1391 c -143.11194,6.8338 -510.04939,34.3531 -395.217987,-81.0128 12.779,-13.2407 55.7452,-44.4383 42.6837,-63.0528 -77.1296,-102.692 -99.7164,-233.9916 -61.8238,-354.4037 37.8926,-120.4123 131.6003,-215.11491 253.778287,-254.5396 26.76943,-10.10033 49.91803,35.32451 26.66838,44.55236 -115.01147,38.16934 -196.447867,132.93974 -216.343967,250.34624 -19.8961003,117.4063 36.4487,265.223 123.575497,309.1386 32.98223,20.8337 118.15934,-6.8581 159.96184,-52.4176 41.80258,-45.5595 35.62822,-92.0833 21.15199,-162.4677 -46.85177,-75.0438 20.34717,-86.3866 45.92025,-56.9351 18.87396,83.6602 44.25863,152.4685 6.00432,218.2548 -10.91152,18.7649 -23.55156,35.0925 -39.41332,50.3845 -19.18564,13.7988 -26.859,83.5137 33.05481,152.1528 z"
       sodipodi:nodetypes="cccsccscsccscc" />
    <rect
       style="font-variation-settings:normal;opacity:1;vector-effect:none;fill:none;fill-opacity:1;fill-rule:evenodd;stroke:#008000;stroke-width:1.23535;stroke-linecap:round;stroke-linejoin:bevel;stroke-miterlimit:4;stroke-dasharray:none;stroke-dashoffset:0;stroke-opacity:1;-inkscape-stroke:none;stop-color:#000000;stop-opacity:1"
       id="rect243"
       width="598.76465"
       height="1198.7646"
       x="593.32513"
       y="540.66003" />
    <rect
       style="font-variation-settings:normal;opacity:1;fill:none;fill-opacity:1;fill-rule:evenodd;stroke:#000000;stroke-width:0.895619;stroke-linecap:round;stroke-linejoin:bevel;stroke-miterlimit:4;stroke-dasharray:none;stroke-dashoffset:0;stroke-opacity:1;stop-color:#000000;stop-opacity:1"
       id="rect355"
       width="99.104378"
       height="59.104382"
       x="67.019936"
       y="1608.756" />
    <rect
       style="font-variation-settings:normal;opacity:1;fill:none;fill-opacity:1;fill-rule:evenodd;stroke:#000000;stroke-width:0.895619;stroke-linecap:round;stroke-linejoin:bevel;stroke-miterlimit:4;stroke-dasharray:none;stroke-dashoffset:0;stroke-opacity:1;stop-color:#000000;stop-opacity:1"
       id="rect958"
       width="99.104378"
       height="59.104382"
       x="188.75555"
       y="1608.756" />
    <g
       id="g1029">
      <path
         style="fill:none;stroke:#000000;stroke-width:0.264583px;stroke-linecap:butt;stroke-linejoin:miter;stroke-opacity:1"
         d="M 75.916726,1617.6507 154.97111,1661.03"
         id="path1023" />
      <path
         style="fill:none;stroke:#000000;stroke-width:0.264583px;stroke-linecap:butt;stroke-linejoin:miter;stroke-opacity:1"
         d="M 154.97111,1617.6507 75.916726,1661.03"
         id="path1025" />
    </g>
    <g
       id="g1035"
       transform="translate(119.93661,0.74575987)">
      <path
         style="fill:none;stroke:#000000;stroke-width:0.264583px;stroke-linecap:butt;stroke-linejoin:miter;stroke-opacity:1"
         d="M 75.916726,1617.6507 154.97111,1661.03"
         id="path1031" />
      <path
         style="fill:none;stroke:#000000;stroke-width:0.264583px;stroke-linecap:butt;stroke-linejoin:miter;stroke-opacity:1"
         d="M 154.97111,1617.6507 75.916726,1661.03"
         id="path1033" />
    </g>
    <text
       xml:space="preserve"
       style="font-style:normal;font-variant:normal;font-weight:normal;font-stretch:normal;font-size:28.2222px;line-height:1.25;font-family:FreeSans;-inkscape-font-specification:'FreeSans, Normal';font-variant-ligatures:normal;font-variant-caps:normal;font-variant-numeric:normal;font-variant-east-asian:normal;stroke-width:0.264583"
       x="41.849354"
       y="1779.5107"
       id="text1091"><tspan
         sodipodi:role="line"
         id="tspan1089"
         style="font-style:normal;font-variant:normal;font-weight:normal;font-stretch:normal;font-size:28.2222px;font-family:FreeSans;-inkscape-font-specification:'FreeSans, Normal';font-variant-ligatures:normal;font-variant-caps:normal;font-variant-numeric:normal;font-variant-east-asian:normal;stroke-width:0.264583"
         x="41.849354"
         y="1779.5107">600 x 1220mm 20mm Ply</tspan></text>
    <path
       id="path1120"
       style="fill:none;stroke:#000000;stroke-width:2.63907px;stroke-linecap:butt;stroke-linejoin:miter;stroke-opacity:1"
       d="m 690.93763,596.0741 c 143.11194,-6.8338 510.04937,-34.3531 395.21797,81.01278 -12.779,13.2407 -55.7452,44.4383 -42.6837,63.0528 77.1296,102.692 99.7164,233.9916 61.8238,354.40372 -37.8926,120.4123 -131.60028,215.1149 -253.77827,254.5396 -26.76943,10.1004 -49.91803,-35.3245 -26.66838,-44.5523 115.01147,-38.1694 196.44785,-132.9398 216.34395,-250.3463 19.8961,-117.40632 -36.4487,-265.22302 -123.57548,-309.13862 -32.98223,-20.8337 -118.15934,6.8581 -159.96184,52.4176 -41.80258,45.5595 -35.62822,92.0833 -21.15199,162.4677 46.85177,75.04382 -20.34717,86.38662 -45.92025,56.93512 -18.87396,-83.66022 -44.25863,-152.46852 -6.00432,-218.25482 10.91152,-18.7649 23.55156,-35.0925 39.41332,-50.3845 19.18564,-13.7988 26.859,-83.5137 -33.05481,-152.15278 z"
       sodipodi:nodetypes="cccsccscsccscc" />
    <rect
       style="font-variation-settings:normal;fill:none;fill-opacity:1;fill-rule:evenodd;stroke:#000000;stroke-width:0.895619;stroke-linecap:round;stroke-linejoin:bevel;stroke-miterlimit:4;stroke-dasharray:none;stroke-dashoffset:0;stroke-opacity:1;stop-color:#000000"
       id="rect1122"
       width="99.104378"
       height="59.104382"
       x="755.88043"
       y="623.90332" />
    <rect
       style="font-variation-settings:normal;fill:none;fill-opacity:1;fill-rule:evenodd;stroke:#000000;stroke-width:1.31869;stroke-linecap:round;stroke-linejoin:bevel;stroke-miterlimit:4;stroke-dasharray:none;stroke-dashoffset:0;stroke-opacity:1;stop-color:#000000"
       id="rect1124"
       width="128.68132"
       height="98.681313"
       x="881.18427"
       y="608.69397" />
    <g
       id="g1130"
       transform="translate(688.86052,-984.85261)">
      <path
         style="fill:none;stroke:#000000;stroke-width:0.264583px;stroke-linecap:butt;stroke-linejoin:miter;stroke-opacity:1"
         d="M 75.916726,1617.6507 154.97111,1661.03"
         id="path1126" />
      <path
         style="fill:none;stroke:#000000;stroke-width:0.264583px;stroke-linecap:butt;stroke-linejoin:miter;stroke-opacity:1"
         d="M 154.97111,1617.6507 75.916726,1661.03"
         id="path1128" />
    </g>
    <g
       id="g1136"
       transform="translate(830.89925,-982.98153)">
      <path
         style="fill:none;stroke:#000000;stroke-width:0.264583px;stroke-linecap:butt;stroke-linejoin:miter;stroke-opacity:1"
         d="M 75.916726,1617.6507 154.97111,1661.03"
         id="path1132" />
      <path
         style="fill:none;stroke:#000000;stroke-width:0.264583px;stroke-linecap:butt;stroke-linejoin:miter;stroke-opacity:1"
         d="M 154.97111,1617.6507 75.916726,1661.03"
         id="path1134" />
    </g>
    <path
       id="path1140"
       style="fill:none;stroke:#000000;stroke-width:2.63907px;stroke-linecap:butt;stroke-linejoin:miter;stroke-opacity:1"
       d="m 1091.037,1703.3899 c -143.11198,6.8338 -510.04943,34.3531 -395.21803,-81.0128 12.779,-13.2407 55.7452,-44.4383 42.6837,-63.0528 -77.1296,-102.692 -99.7164,-233.9916 -61.8238,-354.4037 37.8926,-120.4123 131.6003,-215.1149 253.77829,-254.5396 26.76943,-10.1004 49.91803,35.3245 26.66838,44.5523 -115.01147,38.1694 -196.44787,132.9398 -216.34397,250.3463 -19.8961,117.4063 36.4487,265.223 123.5755,309.1386 32.98223,20.8337 118.15934,-6.8581 159.96183,-52.4176 41.8026,-45.5595 35.6282,-92.0833 21.152,-162.4677 -46.85177,-75.0438 20.3472,-86.3866 45.9202,-56.9351 18.874,83.6602 44.2587,152.4685 6.0044,218.2548 -10.9116,18.7649 -23.5516,35.0925 -39.4134,50.3845 -19.1856,13.7988 -26.859,83.5137 33.0549,152.1528 z"
       sodipodi:nodetypes="cccsccscsccscc" />
    <rect
       style="font-variation-settings:normal;fill:none;fill-opacity:1;fill-rule:evenodd;stroke:#000000;stroke-width:0.895619;stroke-linecap:round;stroke-linejoin:bevel;stroke-miterlimit:4;stroke-dasharray:none;stroke-dashoffset:0;stroke-opacity:1;stop-color:#000000"
       id="rect1142"
       width="99.104378"
       height="59.104382"
       x="-1026.0941"
       y="-1675.5607"
       transform="scale(-1)" />
    <g
       id="g1150"
       transform="rotate(180,546.55703,1642.1583)">
      <path
         style="fill:none;stroke:#000000;stroke-width:0.264583px;stroke-linecap:butt;stroke-linejoin:miter;stroke-opacity:1"
         d="M 75.916726,1617.6507 154.97111,1661.03"
         id="path1146" />
      <path
         style="fill:none;stroke:#000000;stroke-width:0.264583px;stroke-linecap:butt;stroke-linejoin:miter;stroke-opacity:1"
         d="M 154.97111,1617.6507 75.916726,1661.03"
         id="path1148" />
    </g>
    <text
       xml:space="preserve"
       style="font-style:normal;font-variant:normal;font-weight:normal;font-stretch:normal;font-size:28.2222px;line-height:1.25;font-family:FreeSans;-inkscape-font-specification:'FreeSans, Normal';font-variant-ligatures:normal;font-variant-caps:normal;font-variant-numeric:normal;font-variant-east-asian:normal;stroke-width:0.264583"
       x="741.10449"
       y="1779.6831"
       id="text1180"><tspan
         sodipodi:role="line"
         id="tspan1182"
         x="741.10449"
         y="1779.6831">600 x 1220mm 12mm Ply</tspan></text>
  </g>
</svg>
