<?xml version="1.0" encoding="UTF-8" standalone="no"?>
<!-- Created with Inkscape (http://www.inkscape.org/) -->

<svg
   width="210mm"
   height="297mm"
   viewBox="0 0 210 297"
   version="1.1"
   id="svg1553"
   sodipodi:docname="Display_Background.svg"
   inkscape:version="1.1.2 (0a00cf5339, 2022-02-04)"
   xmlns:inkscape="http://www.inkscape.org/namespaces/inkscape"
   xmlns:sodipodi="http://sodipodi.sourceforge.net/DTD/sodipodi-0.dtd"
   xmlns="http://www.w3.org/2000/svg"
   xmlns:svg="http://www.w3.org/2000/svg">
  <sodipodi:namedview
     id="namedview1555"
     pagecolor="#ffffff"
     bordercolor="#666666"
     borderopacity="1.0"
     inkscape:pageshadow="2"
     inkscape:pageopacity="0.0"
     inkscape:pagecheckerboard="0"
     inkscape:document-units="mm"
     showgrid="false"
     inkscape:zoom="2.4623176"
     inkscape:cx="396.5776"
     inkscape:cy="496.28041"
     inkscape:window-width="2880"
     inkscape:window-height="1592"
     inkscape:window-x="1920"
     inkscape:window-y="0"
     inkscape:window-maximized="1"
     inkscape:current-layer="layer1"
     showguides="true"
     inkscape:guide-bbox="true" />
  <defs
     id="defs1550" />
  <g
     inkscape:label="Layer 1"
     inkscape:groupmode="layer"
     id="layer1">
    <rect
       style="fill:#000000;stroke:none;stroke-width:0.100979;stroke-linecap:round"
       id="rect1670"
       width="59.899021"
       height="99.899017"
       x="81.693863"
       y="76.722778"
       ry="3.951422"
       rx="4.0664873" />
    <rect
       style="fill:#ffffff;stroke:none;stroke-width:0.172923;stroke-linecap:round"
       id="rect1171"
       width="29.827078"
       height="29.827078"
       x="96.729836"
       y="111.75875" />
    <rect
       style="fill:#ffffff;stroke:none;stroke-width:0.069253;stroke-linecap:round"
       id="rect1672"
       width="4.930747"
       height="4.930747"
       x="123.66114"
       y="151.69006" />
    <rect
       style="fill:#ffffff;stroke:none;stroke-width:0.069253;stroke-linecap:round"
       id="rect1674"
       width="4.930747"
       height="4.930747"
       x="94.694855"
       y="151.69006" />
    <rect
       style="fill:#ffffff;stroke:none;stroke-width:0.069253;stroke-linecap:round"
       id="rect1676"
       width="4.930747"
       height="4.930747"
       x="123.66114"
       y="96.72377" />
    <rect
       style="fill:#ffffff;stroke:none;stroke-width:0.069253;stroke-linecap:round"
       id="rect1678"
       width="4.930747"
       height="4.930747"
       x="94.694855"
       y="96.72377" />
    <path
       id="path1426"
       style="fill:#ffffff;stroke-width:0.0159602"
       d="m 97.26051,93.734585 c -0.48025,-0.04813 -0.90722,-0.250168 -1.24504,-0.589128 -0.29149,-0.292473 -0.47428,-0.630715 -0.56977,-1.054284 -0.0245,-0.108825 -0.0274,-0.359662 -0.0323,-2.855566 l -0.005,-2.736262 -0.34669,0.345366 c -0.39715,0.395625 -0.42909,0.416944 -0.6261,0.417894 -0.0992,4.85e-4 -0.1353,-0.007 -0.21004,-0.04358 -0.10404,-0.0509 -0.19375,-0.142989 -0.2423,-0.248734 -0.0256,-0.05572 -0.0339,-0.105024 -0.0338,-0.201456 1.1e-4,-0.214704 -0.0136,-0.19769 0.87845,-1.088167 0.49097,-0.490085 0.81283,-0.799344 0.85573,-0.822222 0.0579,-0.03085 0.0928,-0.03667 0.2204,-0.03667 0.12855,0 0.16254,0.0057 0.22344,0.03776 0.0485,0.02552 0.32023,0.288901 0.83791,0.812288 0.42135,0.425991 0.78173,0.79746 0.80084,0.825487 0.13456,0.197303 0.10137,0.47769 -0.0754,0.637432 -0.10216,0.0923 -0.1934,0.127183 -0.33445,0.127863 -0.19383,9.29e-4 -0.23919,-0.02925 -0.62236,-0.414154 l -0.32719,-0.328661 -0.004,0.459687 c -0.002,0.252828 -0.002,1.461591 0,2.686139 l 0.004,2.226451 0.0437,0.127681 c 0.0578,0.168654 0.11931,0.272181 0.23574,0.396645 0.33601,0.359202 0.86154,0.439638 1.29261,0.197846 0.11885,-0.06667 0.33089,-0.283686 0.39372,-0.402968 0.12016,-0.228141 0.12236,-0.242602 0.13212,-0.869832 0.008,-0.534893 0.0107,-0.570715 0.0429,-0.640362 0.11346,-0.245379 0.40787,-0.359327 0.64634,-0.250154 0.11999,0.05493 0.19608,0.126335 0.24859,0.233248 l 0.0445,0.09068 0.005,0.502747 c 0.003,0.288693 -0.002,0.564691 -0.0119,0.648235 -0.0922,0.792162 -0.63213,1.460914 -1.3824,1.712277 -0.25295,0.08475 -0.5791,0.122334 -0.83711,0.09647 z m 1.57804,-4.186765 c -0.0956,-0.03417 -0.17159,-0.08886 -0.2304,-0.165881 -0.0962,-0.126007 -0.10547,-0.187323 -0.0999,-0.661408 0.005,-0.419392 0.005,-0.419538 0.0475,-0.499315 0.0947,-0.177875 0.24733,-0.27077 0.44427,-0.270498 0.20425,2.74e-4 0.36579,0.104443 0.4523,0.291634 0.0327,0.07086 0.0345,0.0972 0.0345,0.521511 0,0.443303 -4.2e-4,0.447526 -0.0395,0.526688 -0.0542,0.109625 -0.15851,0.206634 -0.26482,0.246409 -0.10094,0.03777 -0.25505,0.04263 -0.34396,0.01086 z" />
    <path
       id="path1645"
       style="fill:#ffffff;stroke-width:0.0159602"
       d="m 97.937242,160.16053 c -0.48025,0.0481 -0.90722,0.25017 -1.24504,0.58913 -0.29149,0.29247 -0.47428,0.63071 -0.56977,1.05428 -0.0245,0.10883 -0.0274,0.35966 -0.0323,2.85557 l -0.005,2.73626 -0.34669,-0.34537 c -0.39715,-0.39562 -0.42909,-0.41694 -0.6261,-0.41789 -0.0992,-4.8e-4 -0.1353,0.007 -0.21004,0.0436 -0.10404,0.0509 -0.19375,0.14299 -0.2423,0.24873 -0.0256,0.0557 -0.0339,0.10503 -0.0338,0.20146 1.1e-4,0.2147 -0.0136,0.19769 0.87845,1.08817 0.49097,0.49008 0.81283,0.79934 0.85573,0.82222 0.0579,0.0309 0.0928,0.0367 0.2204,0.0367 0.12855,0 0.16254,-0.006 0.22344,-0.0378 0.0485,-0.0255 0.32023,-0.2889 0.83791,-0.81229 0.42135,-0.42599 0.78173,-0.79746 0.80084,-0.82549 0.13456,-0.1973 0.10137,-0.47769 -0.0754,-0.63743 -0.10216,-0.0923 -0.1934,-0.12718 -0.33445,-0.12786 -0.19383,-9.3e-4 -0.23919,0.0292 -0.62236,0.41415 l -0.32719,0.32866 -0.004,-0.45968 c -0.002,-0.25283 -0.002,-1.46159 0,-2.68614 l 0.004,-2.22645 0.0437,-0.12768 c 0.0578,-0.16866 0.11931,-0.27218 0.23574,-0.39665 0.33601,-0.3592 0.86154,-0.43964 1.29261,-0.19784 0.11885,0.0667 0.33089,0.28368 0.39372,0.40296 0.12016,0.22814 0.12236,0.24261 0.13212,0.86984 0.008,0.53489 0.0107,0.57071 0.0429,0.64036 0.11346,0.24538 0.40787,0.35932 0.64634,0.25015 0.11999,-0.0549 0.196078,-0.12633 0.248588,-0.23325 l 0.0445,-0.0907 0.005,-0.50274 c 0.003,-0.2887 -0.002,-0.56469 -0.0119,-0.64824 -0.0922,-0.79216 -0.632128,-1.46091 -1.382398,-1.71228 -0.25295,-0.0847 -0.5791,-0.12233 -0.83711,-0.0965 z m 1.57804,4.18677 c -0.0956,0.0342 -0.17159,0.0889 -0.2304,0.16588 -0.0962,0.126 -0.10547,0.18732 -0.0999,0.6614 0.005,0.4194 0.005,0.41954 0.0475,0.49932 0.0947,0.17787 0.24733,0.27077 0.44427,0.2705 0.20425,-2.8e-4 0.365788,-0.10445 0.452298,-0.29164 0.0327,-0.0709 0.0345,-0.0972 0.0345,-0.52151 0,-0.4433 -4.2e-4,-0.44752 -0.0395,-0.52669 -0.0542,-0.10962 -0.158508,-0.20663 -0.264818,-0.2464 -0.10094,-0.0378 -0.25505,-0.0426 -0.34396,-0.0109 z" />
    <path
       id="path1649"
       style="fill:#ffffff;stroke-width:0.0159602"
       d="m 130.16378,164.48759 c -0.0481,-0.48025 -0.25017,-0.90722 -0.58913,-1.24504 -0.29247,-0.29149 -0.63071,-0.47428 -1.05428,-0.56977 -0.10883,-0.0245 -0.35966,-0.0274 -2.85557,-0.0323 l -2.73626,-0.005 0.34537,-0.34669 c 0.39562,-0.39715 0.41694,-0.42909 0.41789,-0.6261 4.8e-4,-0.0992 -0.007,-0.1353 -0.0436,-0.21004 -0.0509,-0.10404 -0.14299,-0.19375 -0.24873,-0.2423 -0.0557,-0.0256 -0.10503,-0.0339 -0.20146,-0.0338 -0.2147,1.1e-4 -0.19769,-0.0136 -1.08817,0.87845 -0.49008,0.49097 -0.79934,0.81283 -0.82222,0.85573 -0.0309,0.0579 -0.0367,0.0928 -0.0367,0.2204 0,0.12855 0.006,0.16254 0.0378,0.22344 0.0255,0.0485 0.2889,0.32023 0.81229,0.83791 0.42599,0.42135 0.79746,0.78173 0.82549,0.80084 0.1973,0.13456 0.47769,0.10137 0.63743,-0.0754 0.0923,-0.10216 0.12718,-0.1934 0.12786,-0.33445 9.3e-4,-0.19383 -0.0292,-0.23919 -0.41415,-0.62236 l -0.32866,-0.32719 0.45968,-0.004 c 0.25283,-0.002 1.46159,-0.002 2.68614,0 l 2.22645,0.004 0.12768,0.0437 c 0.16866,0.0578 0.27218,0.11931 0.39665,0.23574 0.3592,0.33601 0.43964,0.86154 0.19784,1.29261 -0.0667,0.11885 -0.28368,0.33089 -0.40296,0.39372 -0.22814,0.12016 -0.24261,0.12236 -0.86984,0.13212 -0.53489,0.008 -0.57071,0.0107 -0.64036,0.0429 -0.24538,0.11346 -0.35932,0.40787 -0.25015,0.64634 0.0549,0.11999 0.12633,0.19608 0.23325,0.24859 l 0.0907,0.0445 0.50274,0.005 c 0.2887,0.003 0.56469,-0.002 0.64824,-0.0119 0.79216,-0.0922 1.46091,-0.63213 1.71228,-1.3824 0.0847,-0.25295 0.12233,-0.5791 0.0965,-0.83711 z m -4.18677,1.57804 c -0.0342,-0.0956 -0.0889,-0.17159 -0.16588,-0.2304 -0.126,-0.0962 -0.18732,-0.10547 -0.6614,-0.0999 -0.4194,0.005 -0.41954,0.005 -0.49932,0.0475 -0.17787,0.0947 -0.27077,0.24733 -0.2705,0.44427 2.8e-4,0.20425 0.10445,0.36579 0.29164,0.4523 0.0709,0.0327 0.0972,0.0345 0.52151,0.0345 0.4433,0 0.44752,-4.2e-4 0.52669,-0.0395 0.10962,-0.0542 0.20663,-0.15851 0.2464,-0.26482 0.0378,-0.10094 0.0426,-0.25505 0.0109,-0.34396 z" />
    <path
       id="path1651"
       style="fill:#ffffff;stroke-width:0.0159602"
       d="m 121.22567,90.700076 c 0.0481,-0.48025 0.25017,-0.90722 0.58913,-1.24504 0.29247,-0.29149 0.63071,-0.47428 1.05428,-0.56977 0.10883,-0.0245 0.35966,-0.0274 2.85557,-0.0323 l 2.73626,-0.005 -0.34537,-0.34669 c -0.39562,-0.39715 -0.41694,-0.42909 -0.41789,-0.6261 -4.8e-4,-0.0992 0.007,-0.1353 0.0436,-0.21004 0.0509,-0.10404 0.14299,-0.19375 0.24873,-0.2423 0.0557,-0.0256 0.10503,-0.0339 0.20146,-0.0338 0.2147,1.1e-4 0.19769,-0.0136 1.08817,0.87845 0.49008,0.49097 0.79934,0.81283 0.82222,0.85573 0.0309,0.0579 0.0367,0.0928 0.0367,0.2204 0,0.12855 -0.006,0.16254 -0.0378,0.22344 -0.0255,0.0485 -0.2889,0.32023 -0.81229,0.83791 -0.42599,0.42135 -0.79746,0.78173 -0.82549,0.80084 -0.1973,0.13456 -0.47769,0.10137 -0.63743,-0.0754 -0.0923,-0.10216 -0.12718,-0.1934 -0.12786,-0.33445 -9.3e-4,-0.19383 0.0292,-0.23919 0.41415,-0.62236 l 0.32866,-0.32719 -0.45968,-0.004 c -0.25283,-0.002 -1.46159,-0.002 -2.68614,0 l -2.22645,0.004 -0.12768,0.0437 c -0.16866,0.0578 -0.27218,0.11931 -0.39665,0.23574 -0.3592,0.33601 -0.43964,0.86154 -0.19784,1.29261 0.0667,0.11885 0.28368,0.33089 0.40296,0.39372 0.22814,0.12016 0.24261,0.12236 0.86984,0.13212 0.53489,0.008 0.57071,0.0107 0.64036,0.0429 0.24538,0.11346 0.35932,0.40787 0.25015,0.64634 -0.0549,0.11999 -0.12633,0.19608 -0.23325,0.24859 l -0.0907,0.0445 -0.50274,0.005 c -0.2887,0.003 -0.56469,-0.002 -0.64824,-0.0119 -0.79216,-0.0922 -1.46091,-0.63213 -1.71228,-1.3824 -0.0847,-0.25295 -0.12233,-0.5791 -0.0965,-0.83711 z m 4.18677,1.57804 c 0.0342,-0.0956 0.0889,-0.17159 0.16588,-0.2304 0.126,-0.0962 0.18732,-0.10547 0.6614,-0.0999 0.4194,0.005 0.41954,0.005 0.49932,0.0475 0.17787,0.0947 0.27077,0.24733 0.2705,0.44427 -2.8e-4,0.20425 -0.10445,0.36579 -0.29164,0.4523 -0.0709,0.0327 -0.0972,0.0345 -0.52151,0.0345 -0.4433,0 -0.44752,-4.2e-4 -0.52669,-0.0395 -0.10962,-0.0542 -0.20663,-0.15851 -0.2464,-0.26482 -0.0378,-0.10094 -0.0426,-0.25505 -0.0109,-0.34396 z" />
  </g>
</svg>
