<?xml version="1.0" encoding="UTF-8" standalone="no"?>
<!-- Created with Inkscape (http://www.inkscape.org/) -->

<svg
   width="210mm"
   height="297mm"
   viewBox="0 0 210 297"
   version="1.1"
   id="svg1423"
   sodipodi:docname="Mod_Background.svg"
   inkscape:version="1.1.2 (0a00cf5339, 2022-02-04)"
   xmlns:inkscape="http://www.inkscape.org/namespaces/inkscape"
   xmlns:sodipodi="http://sodipodi.sourceforge.net/DTD/sodipodi-0.dtd"
   xmlns="http://www.w3.org/2000/svg"
   xmlns:svg="http://www.w3.org/2000/svg">
  <sodipodi:namedview
     id="namedview1425"
     pagecolor="#ffffff"
     bordercolor="#666666"
     borderopacity="1.0"
     inkscape:pageshadow="2"
     inkscape:pageopacity="0.0"
     inkscape:pagecheckerboard="0"
     inkscape:document-units="mm"
     showgrid="false"
     inkscape:zoom="2.8578563"
     inkscape:cx="398.37552"
     inkscape:cy="225.34373"
     inkscape:window-width="2880"
     inkscape:window-height="1592"
     inkscape:window-x="1920"
     inkscape:window-y="0"
     inkscape:window-maximized="1"
     inkscape:current-layer="layer1" />
  <defs
     id="defs1420" />
  <g
     inkscape:label="Layer 1"
     inkscape:groupmode="layer"
     id="layer1">
    <rect
       style="fill:#000000;stroke:none;stroke-width:0.100979;stroke-linecap:round"
       id="rect2605"
       width="59.899021"
       height="99.899017"
       x="32.443047"
       y="23.296144"
       ry="3.951422"
       rx="4.0664873" />
    <path
       id="path1426"
       style="fill:#ffffff;stroke-width:0.0159602"
       d="m 78.43928,96.623366 c -0.48025,-0.04813 -0.90722,-0.250168 -1.24504,-0.589128 -0.29149,-0.292473 -0.47428,-0.630715 -0.56977,-1.054284 -0.0245,-0.108825 -0.0274,-0.359662 -0.0323,-2.855566 l -0.005,-2.736262 -0.34669,0.345366 c -0.39715,0.395625 -0.42909,0.416944 -0.6261,0.417894 -0.0992,4.85e-4 -0.1353,-0.007 -0.21004,-0.04358 -0.10404,-0.0509 -0.19375,-0.142989 -0.2423,-0.248734 -0.0256,-0.05572 -0.0339,-0.105024 -0.0338,-0.201456 1.1e-4,-0.214704 -0.0136,-0.19769 0.87845,-1.088167 0.49097,-0.490085 0.81283,-0.799344 0.85573,-0.822222 0.0579,-0.03085 0.0928,-0.03667 0.2204,-0.03667 0.12855,0 0.16254,0.0057 0.22344,0.03776 0.0485,0.02552 0.32023,0.288901 0.83791,0.812288 0.42135,0.425991 0.78173,0.79746 0.80084,0.825487 0.13456,0.197303 0.10137,0.47769 -0.0754,0.637432 -0.10216,0.0923 -0.1934,0.127183 -0.33445,0.127863 -0.19383,9.29e-4 -0.23919,-0.02925 -0.62236,-0.414154 l -0.32719,-0.328661 -0.004,0.459687 c -0.002,0.252828 -0.002,1.461591 0,2.686139 l 0.004,2.226451 0.0437,0.127681 c 0.0578,0.168654 0.11931,0.272181 0.23574,0.396645 0.33601,0.359202 0.86154,0.439638 1.29261,0.197846 0.11885,-0.06667 0.33089,-0.283686 0.39372,-0.402968 0.12016,-0.228141 0.12236,-0.242602 0.13212,-0.869832 0.008,-0.534893 0.0107,-0.570715 0.0429,-0.640362 0.11346,-0.245379 0.40787,-0.359327 0.64634,-0.250154 0.11999,0.05493 0.19608,0.126335 0.24859,0.233248 l 0.0445,0.09068 0.005,0.502747 c 0.003,0.288693 -0.002,0.564691 -0.0119,0.648235 -0.0922,0.792162 -0.63213,1.460914 -1.3824,1.712277 -0.25295,0.08475 -0.5791,0.122334 -0.83711,0.09647 z m 1.57804,-4.186765 c -0.0956,-0.03417 -0.17159,-0.08886 -0.2304,-0.165881 -0.0962,-0.126007 -0.10547,-0.187323 -0.0999,-0.661408 0.005,-0.419392 0.005,-0.419538 0.0475,-0.499315 0.0947,-0.177875 0.24733,-0.27077 0.44427,-0.270498 0.20425,2.74e-4 0.36579,0.104443 0.4523,0.291634 0.0327,0.07086 0.0345,0.0972 0.0345,0.521511 0,0.443303 -4.2e-4,0.447526 -0.0395,0.526688 -0.0542,0.109625 -0.15851,0.206634 -0.26482,0.246409 -0.10094,0.03777 -0.25505,0.04263 -0.34396,0.01086 z" />
    <path
       id="path1645"
       style="fill:#ffffff;stroke-width:0.0159602"
       d="m 47.754747,87.99129 c -0.48025,0.0481 -0.90722,0.25017 -1.24504,0.58913 -0.29149,0.29247 -0.47428,0.63071 -0.56977,1.05428 -0.0245,0.10883 -0.0274,0.35966 -0.0323,2.85557 l -0.005,2.73626 -0.34669,-0.34537 c -0.39715,-0.39562 -0.42909,-0.41694 -0.6261,-0.41789 -0.0992,-4.8e-4 -0.1353,0.007 -0.21004,0.0436 -0.10404,0.0509 -0.19375,0.14299 -0.2423,0.24873 -0.0256,0.0557 -0.0339,0.10503 -0.0338,0.20146 1.1e-4,0.2147 -0.0136,0.19769 0.87845,1.08817 0.49097,0.49008 0.81283,0.79934 0.85573,0.82222 0.0579,0.0309 0.0928,0.0367 0.2204,0.0367 0.12855,0 0.16254,-0.006 0.22344,-0.0378 0.0485,-0.0255 0.32023,-0.2889 0.83791,-0.81229 0.42135,-0.42599 0.78173,-0.79746 0.80084,-0.82549 0.13456,-0.1973 0.10137,-0.47769 -0.0754,-0.63743 -0.10216,-0.0923 -0.1934,-0.12718 -0.33445,-0.12786 -0.19383,-9.3e-4 -0.23919,0.0292 -0.62236,0.41415 l -0.32719,0.32866 -0.004,-0.45968 c -0.002,-0.25283 -0.002,-1.46159 0,-2.68614 l 0.004,-2.22645 0.0437,-0.12768 c 0.0578,-0.16866 0.11931,-0.27218 0.23574,-0.39665 0.33601,-0.3592 0.86154,-0.43964 1.29261,-0.19784 0.11885,0.0667 0.33089,0.28368 0.39372,0.40296 0.12016,0.22814 0.12236,0.24261 0.13212,0.86984 0.008,0.53489 0.0107,0.57071 0.0429,0.64036 0.11346,0.24538 0.40787,0.35932 0.64634,0.25015 0.11999,-0.0549 0.196078,-0.12633 0.248588,-0.23325 l 0.0445,-0.0907 0.005,-0.50274 c 0.003,-0.2887 -0.002,-0.56469 -0.0119,-0.64824 -0.0922,-0.79216 -0.632128,-1.46091 -1.382398,-1.71228 -0.25295,-0.0847 -0.5791,-0.12233 -0.83711,-0.0965 z m 1.57804,4.18677 c -0.0956,0.0342 -0.17159,0.0889 -0.2304,0.16588 -0.0962,0.126 -0.10547,0.18732 -0.0999,0.6614 0.005,0.4194 0.005,0.41954 0.0475,0.49932 0.0947,0.17787 0.24733,0.27077 0.44427,0.2705 0.20425,-2.8e-4 0.365788,-0.10445 0.452298,-0.29164 0.0327,-0.0709 0.0345,-0.0972 0.0345,-0.52151 0,-0.4433 -4.2e-4,-0.44752 -0.0395,-0.52669 -0.0542,-0.10962 -0.158508,-0.20663 -0.264818,-0.2464 -0.10094,-0.0378 -0.25505,-0.0426 -0.34396,-0.0109 z" />
    <g
       id="g2485"
       transform="translate(-13.938639,-67.764629)"
       style="fill:#ffffff;stroke:none">
      <rect
         style="fill:#ffffff;stroke:none;stroke-width:0.069253;stroke-linecap:round"
         id="rect1275"
         width="4.930747"
         height="4.930747"
         x="88.983223"
         y="147.62697" />
      <rect
         style="fill:#ffffff;stroke:none;stroke-width:0.069253;stroke-linecap:round"
         id="rect1375"
         width="4.930747"
         height="4.930747"
         x="58.958599"
         y="147.62697" />
    </g>
    <circle
       style="fill:#ffffff;stroke:none;stroke-width:0.130005;stroke-linecap:round"
       id="circle2607"
       cx="62.392548"
       cy="57.802132"
       r="11.934998" />
    <text
       xml:space="preserve"
       style="font-style:italic;font-variant:normal;font-weight:normal;font-stretch:normal;font-size:4.93889px;line-height:1.25;font-family:sans-serif;-inkscape-font-specification:'sans-serif, Italic';font-variant-ligatures:normal;font-variant-caps:normal;font-variant-numeric:normal;font-variant-east-asian:normal;fill:#ffffff;fill-opacity:1;stroke:none;stroke-width:0.264583"
       x="58.26862"
       y="94.512238"
       id="text4203"><tspan
         sodipodi:role="line"
         id="tspan4201"
         style="font-style:italic;font-variant:normal;font-weight:normal;font-stretch:normal;font-size:4.93888973px;font-family:sans-serif;-inkscape-font-specification:'sans-serif, Italic';font-variant-ligatures:normal;font-variant-caps:normal;font-variant-numeric:normal;font-variant-east-asian:normal;fill:#ffffff;stroke-width:0.264583"
         x="58.26862"
         y="94.512238">8ve</tspan></text>
    <path
       style="fill:#ffffff;stroke-width:0.0824717"
       d="m 56.552427,40.908502 c -1.22738,-0.955262 -1.61257,-1.298487 -1.61257,-1.436881 0,-0.264453 3.03216,-2.616103 3.37314,-2.616103 0.30193,0 0.46202,0.124333 0.46202,0.358836 0,0.138219 -0.27457,0.398314 -1.09764,1.039794 l -1.09764,0.855469 h 6.21752 6.21751 l -1.09764,-0.855469 c -0.82307,-0.64148 -1.09763,-0.901575 -1.09763,-1.039794 0,-0.234969 0.16019,-0.358836 0.46405,-0.358836 0.34242,0 3.37111,2.353179 3.37111,2.619222 0,0.138546 -0.38858,0.48347 -1.63376,1.450211 -1.56833,1.217638 -1.64418,1.265597 -1.89419,1.197671 -0.19527,-0.05305 -0.26712,-0.125017 -0.28712,-0.287585 -0.0234,-0.190432 0.10467,-0.318475 1.05233,-1.051838 0.59345,-0.459257 1.07901,-0.860086 1.07901,-0.890733 0,-0.03065 -2.77815,-0.05572 -6.17367,-0.05572 -3.39552,0 -6.17367,0.02508 -6.17367,0.05572 0,0.03065 0.48407,0.430942 1.07571,0.889546 0.84751,0.656935 1.07572,0.875956 1.07572,1.032414 0,0.194532 -0.21518,0.349131 -0.48594,0.349131 -0.0682,0 -0.84973,-0.564775 -1.73665,-1.255055 z"
       id="path5126" />
    <path
       style="fill:#ffffff;stroke-width:0.0824717"
       d="m 46.012319,62.722213 c -0.955262,1.227379 -1.298487,1.612569 -1.436881,1.612569 -0.264453,0 -2.616103,-3.032159 -2.616103,-3.37314 0,-0.301929 0.124333,-0.46202 0.358835,-0.46202 0.138219,0 0.398314,0.27457 1.039795,1.09764 l 0.855468,1.09764 v -6.21752 -6.21751 l -0.855468,1.09764 c -0.641481,0.82307 -0.901576,1.09763 -1.039795,1.09763 -0.234968,0 -0.358835,-0.16019 -0.358835,-0.46405 0,-0.34242 2.353179,-3.37111 2.619222,-3.37111 0.138546,0 0.48347,0.38858 1.450211,1.63376 1.217638,1.568331 1.265597,1.64418 1.197671,1.89419 -0.05305,0.195271 -0.125017,0.26712 -0.287585,0.287121 -0.190432,0.0234 -0.318475,-0.10467 -1.051838,-1.05233 -0.459257,-0.59345 -0.860086,-1.07901 -0.890733,-1.07901 -0.03065,0 -0.05572,2.77815 -0.05572,6.17367 0,3.39552 0.02508,6.17367 0.05572,6.17367 0.03065,0 0.430942,-0.48407 0.889546,-1.07571 0.656935,-0.84751 0.875956,-1.07572 1.032414,-1.07572 0.194532,0 0.349131,0.21518 0.349131,0.48594 0,0.0682 -0.564775,0.84973 -1.255055,1.73665 z"
       id="path5244" />
    <text
       xml:space="preserve"
       style="font-style:italic;font-variant:normal;font-weight:normal;font-stretch:normal;font-size:4.23333px;line-height:1.25;font-family:sans-serif;-inkscape-font-specification:'sans-serif, Italic';font-variant-ligatures:normal;font-variant-caps:normal;font-variant-numeric:normal;font-variant-east-asian:normal;fill:#ffffff;fill-opacity:1;stroke:none;stroke-width:0.264583"
       x="58.581829"
       y="35.609276"
       id="text10022"><tspan
         sodipodi:role="line"
         id="tspan10020"
         style="font-style:italic;font-variant:normal;font-weight:normal;font-stretch:normal;font-size:4.23333px;font-family:sans-serif;-inkscape-font-specification:'sans-serif, Italic';font-variant-ligatures:normal;font-variant-caps:normal;font-variant-numeric:normal;font-variant-east-asian:normal;fill:#ffffff;stroke-width:0.264583"
         x="58.581829"
         y="35.609276">Mod</tspan></text>
    <text
       xml:space="preserve"
       style="font-style:italic;font-variant:normal;font-weight:normal;font-stretch:normal;font-size:4.23333px;line-height:1.25;font-family:sans-serif;-inkscape-font-specification:'sans-serif, Italic';font-variant-ligatures:normal;font-variant-caps:normal;font-variant-numeric:normal;font-variant-east-asian:normal;fill:#ffffff;fill-opacity:1;stroke:none;stroke-width:0.264583"
       x="-61.602604"
       y="40.741829"
       id="text11744"
       transform="rotate(-90)"><tspan
         sodipodi:role="line"
         id="tspan11742"
         style="font-style:italic;font-variant:normal;font-weight:normal;font-stretch:normal;font-size:4.23333px;font-family:sans-serif;-inkscape-font-specification:'sans-serif, Italic';font-variant-ligatures:normal;font-variant-caps:normal;font-variant-numeric:normal;font-variant-east-asian:normal;fill:#ffffff;stroke-width:0.264583"
         x="-61.602604"
         y="40.741829">Bend</tspan></text>
  </g>
</svg>
