<?xml version="1.0" encoding="UTF-8" standalone="no"?>
<!-- Created with Inkscape (http://www.inkscape.org/) -->

<svg
   width="210mm"
   height="297mm"
   viewBox="0 0 210 297"
   version="1.1"
   id="svg305"
   inkscape:version="1.2.2 (b0a8486541, 2022-12-01)"
   sodipodi:docname="cutting_plan.svg"
   xmlns:inkscape="http://www.inkscape.org/namespaces/inkscape"
   xmlns:sodipodi="http://sodipodi.sourceforge.net/DTD/sodipodi-0.dtd"
   xmlns="http://www.w3.org/2000/svg"
   xmlns:svg="http://www.w3.org/2000/svg">
  <sodipodi:namedview
     id="namedview307"
     pagecolor="#ffffff"
     bordercolor="#666666"
     borderopacity="1.0"
     inkscape:showpageshadow="2"
     inkscape:pageopacity="0.0"
     inkscape:pagecheckerboard="0"
     inkscape:deskcolor="#d1d1d1"
     inkscape:document-units="mm"
     showgrid="false"
     inkscape:zoom="0.10512065"
     inkscape:cx="-1564.8685"
     inkscape:cy="1184.3534"
     inkscape:window-width="1920"
     inkscape:window-height="1012"
     inkscape:window-x="2880"
     inkscape:window-y="856"
     inkscape:window-maximized="1"
     inkscape:current-layer="layer1" />
  <defs
     id="defs302" />
  <g
     inkscape:label="Layer 1"
     inkscape:groupmode="layer"
     id="layer1">
    <path
       id="path579"
       style="fill:none;stroke:#000000;stroke-width:2.63907px;stroke-linecap:butt;stroke-linejoin:miter;stroke-opacity:1"
       d="m -204.14204,412.43825 c -143.11194,6.8338 -510.04934,34.35311 -395.21797,-81.01275 12.77902,-13.24067 55.74519,-44.43833 42.68367,-63.05285 -77.12954,-102.692 -99.71642,-233.991528 -61.82379,-354.403641 37.89259,-120.412319 131.60029,-215.114929 253.77829,-254.539619 26.76943,-10.10033 49.91803,35.32451 26.66838,44.55236 -115.01146,38.16932 -196.44782,132.93974 -216.34395,250.346262 -19.89609,117.406315 36.44871,265.222938 123.5755,309.138588 32.98221,20.83373 118.15932,-6.85811 159.96182,-52.41758 41.80258,-45.55948 35.62822,-92.0833 21.15199,-162.467766 -46.85177,-75.043775 20.34717,-86.386603 45.92025,-56.9350604 18.87396,83.6601924 44.25863,152.4685164 6.00432,218.2547664 -10.91152,18.76493 -23.55156,35.0925 -39.41332,50.38452 -19.18564,13.79884 -26.859,83.51373 33.05481,152.15277 z"
       sodipodi:nodetypes="cccsccscsccscc" />
    <g
       id="g661"
       transform="matrix(9.9744466,0,0,9.9744466,-2135.9882,-1118.2175)">
      <rect
         style="font-variation-settings:normal;opacity:1;vector-effect:none;fill:none;fill-opacity:1;fill-rule:evenodd;stroke:#0000ff;stroke-width:0.0557754;stroke-linecap:round;stroke-linejoin:bevel;stroke-miterlimit:4;stroke-dasharray:none;stroke-dashoffset:0;stroke-opacity:1;-inkscape-stroke:none;stop-color:#000000;stop-opacity:1"
         id="rect655"
         width="9.9442244"
         height="5.9442244"
         x="161.59239"
         y="141.60199" />
      <rect
         style="font-variation-settings:normal;opacity:1;vector-effect:none;fill:none;fill-opacity:1;fill-rule:evenodd;stroke:#a05a2c;stroke-width:0.0856985;stroke-linecap:round;stroke-linejoin:bevel;stroke-miterlimit:4;stroke-dasharray:none;stroke-dashoffset:0;stroke-opacity:1;-inkscape-stroke:none;stop-color:#000000;stop-opacity:1"
         id="rect657"
         width="12.854594"
         height="10.855975"
         x="160.13721"
         y="140.32256" />
    </g>
    <g
       id="g667"
       transform="matrix(9.9744466,0,0,-9.9744466,-1994.0634,1789.3445)">
      <rect
         style="font-variation-settings:normal;opacity:1;vector-effect:none;fill:none;fill-opacity:1;fill-rule:evenodd;stroke:#0000ff;stroke-width:0.0557754;stroke-linecap:round;stroke-linejoin:bevel;stroke-miterlimit:4;stroke-dasharray:none;stroke-dashoffset:0;stroke-opacity:1;-inkscape-stroke:none;stop-color:#000000;stop-opacity:1"
         id="rect663"
         width="9.9442244"
         height="5.9442244"
         x="161.59239"
         y="141.60199" />
      <rect
         style="font-variation-settings:normal;opacity:1;vector-effect:none;fill:none;fill-opacity:1;fill-rule:evenodd;stroke:#a05a2c;stroke-width:0.0856985;stroke-linecap:round;stroke-linejoin:bevel;stroke-miterlimit:4;stroke-dasharray:none;stroke-dashoffset:0;stroke-opacity:1;-inkscape-stroke:none;stop-color:#000000;stop-opacity:1"
         id="rect665"
         width="12.854594"
         height="10.855975"
         x="160.13721"
         y="140.32256" />
    </g>
    <rect
       style="font-variation-settings:normal;opacity:1;vector-effect:none;fill:none;fill-opacity:1;fill-rule:evenodd;stroke:#008000;stroke-width:1.23535;stroke-linecap:round;stroke-linejoin:bevel;stroke-miterlimit:4;stroke-dasharray:none;stroke-dashoffset:0;stroke-opacity:1;-inkscape-stroke:none;stop-color:#000000;stop-opacity:1"
       id="rect569"
       width="598.76465"
       height="1198.7646"
       x="-85.800087"
       y="538.12695" />
    <path
       id="path587"
       style="fill:none;stroke:#000000;stroke-width:2.63907px;stroke-linecap:butt;stroke-linejoin:miter;stroke-opacity:1"
       d="m 365.4744,1706.1391 c -143.11194,6.8338 -510.04939,34.3531 -395.217987,-81.0128 12.779,-13.2407 55.7452,-44.4383 42.6837,-63.0528 -77.1296,-102.692 -99.7164,-233.9916 -61.8238,-354.4037 37.8926,-120.4123 131.6003,-215.11491 253.778287,-254.5396 26.76943,-10.10033 49.91803,35.32451 26.66838,44.55236 -115.01147,38.16934 -196.447867,132.93974 -216.343967,250.34624 -19.8961003,117.4063 36.4487,265.223 123.575497,309.1386 32.98223,20.8337 118.15934,-6.8581 159.96184,-52.4176 41.80258,-45.5595 35.62822,-92.0833 21.15199,-162.4677 -46.85177,-75.0438 20.34717,-86.3866 45.92025,-56.9351 18.87396,83.6602 44.25863,152.4685 6.00432,218.2548 -10.91152,18.7649 -23.55156,35.0925 -39.41332,50.3845 -19.18564,13.7988 -26.859,83.5137 33.05481,152.1528 z"
       sodipodi:nodetypes="cccsccscsccscc" />
    <path
       id="path589"
       style="fill:none;stroke:#000000;stroke-width:2.63907px;stroke-linecap:butt;stroke-linejoin:miter;stroke-opacity:1"
       d="m -37.167957,591.75132 c 143.111937,-6.8338 510.049387,-34.3531 395.217987,81.01278 -12.779,13.2407 -55.7452,44.4383 -42.6837,63.0528 77.1296,102.692 99.7164,233.9916 61.8238,354.4037 -37.8926,120.4123 -131.6003,215.1149 -253.77829,254.5396 -26.769427,10.1004 -49.918027,-35.3245 -26.668377,-44.5523 115.011467,-38.1694 196.447867,-132.9398 216.343967,-250.3463 19.8961,-117.4063 -36.4487,-265.223 -123.5755,-309.1386 -32.98223,-20.8337 -118.159337,6.8581 -159.961837,52.4176 -41.80258,45.5595 -35.6282206,92.0833 -21.1519906,162.4677 46.8517706,75.0438 -20.3471694,86.3866 -45.9202494,56.9351 -18.87396,-83.6602 -44.25863,-152.4685 -6.00432,-218.2548 10.91152,-18.7649 23.55156,-35.0925 39.4133194,-50.3845 C 15.072493,730.1053 22.745853,660.3904 -37.167957,591.75132 Z"
       sodipodi:nodetypes="cccsccscsccscc" />
  </g>
</svg>
