<?xml version="1.0" encoding="UTF-8" standalone="no"?>
<!-- Created with Inkscape (http://www.inkscape.org/) -->

<svg
   width="210mm"
   height="297mm"
   viewBox="0 0 210 297"
   version="1.1"
   id="svg5"
   inkscape:version="1.2.2 (b0a8486541, 2022-12-01)"
   sodipodi:docname="harp_3_sketch.svg"
   xmlns:inkscape="http://www.inkscape.org/namespaces/inkscape"
   xmlns:sodipodi="http://sodipodi.sourceforge.net/DTD/sodipodi-0.dtd"
   xmlns="http://www.w3.org/2000/svg"
   xmlns:svg="http://www.w3.org/2000/svg">
  <sodipodi:namedview
     id="namedview7"
     pagecolor="#ffffff"
     bordercolor="#666666"
     borderopacity="1.0"
     inkscape:showpageshadow="2"
     inkscape:pageopacity="0.0"
     inkscape:pagecheckerboard="0"
     inkscape:deskcolor="#d1d1d1"
     inkscape:document-units="mm"
     showgrid="false"
     inkscape:zoom="0.84096521"
     inkscape:cx="410.83745"
     inkscape:cy="596.33858"
     inkscape:window-width="2880"
     inkscape:window-height="1592"
     inkscape:window-x="0"
     inkscape:window-y="0"
     inkscape:window-maximized="1"
     inkscape:current-layer="layer1" />
  <defs
     id="defs2" />
  <g
     inkscape:label="Layer 1"
     inkscape:groupmode="layer"
     id="layer1">
    <path
       style="fill:none;stroke:#ff00ff;stroke-width:0.313117;stroke-linecap:round;stroke-linejoin:round"
       id="path234"
       sodipodi:type="arc"
       sodipodi:cx="-156.436"
       sodipodi:cy="-121.50531"
       sodipodi:rx="94.914795"
       sodipodi:ry="94.914795"
       sodipodi:start="0.22711082"
       sodipodi:end="1.8177272"
       sodipodi:arc-type="slice"
       d="m -63.958527,-100.13396 a 94.914795,94.914795 0 0 1 -42.998093,59.626236 94.914795,94.914795 0 0 1 -72.67932,11.038175 l 23.19994,-92.035761 z"
       transform="matrix(-0.21022167,-0.97765375,-0.97765375,0.21022167,0,0)"
       inkscape:transform-center-x="47.775188"
       inkscape:transform-center-y="-21.82859" />
    <path
       id="path579"
       style="fill:none;stroke:#000000;stroke-width:0.754258px;stroke-linecap:butt;stroke-linejoin:miter;stroke-opacity:1"
       d="m 161.63058,243.2713 c -40.90202,1.95313 -145.774336,9.81827 -112.955033,-23.1538 3.652306,-3.78424 15.932219,-12.70067 12.19918,-18.02078 C 38.830773,172.74689 32.375343,135.22091 43.205218,100.8066 54.035087,66.392229 80.817162,39.325816 115.73617,28.058064 c 7.65082,-2.886717 14.26679,10.095898 7.62194,12.73326 -32.870779,10.908958 -56.145651,37.994757 -61.832052,71.550056 -5.686392,33.55524 10.417205,75.80188 35.318424,88.35317 9.426458,5.95437 33.770448,-1.96008 45.717788,-14.98118 11.94736,-13.0211 10.1827,-26.31781 6.04533,-46.434 -13.39044,-21.44784 5.81531,-24.68967 13.12421,-16.27229 5.39426,23.91045 12.64931,43.57617 1.71606,62.37817 -3.11856,5.3631 -6.73114,10.02959 -11.2645,14.40012 -5.48334,3.94377 -7.67642,23.86859 9.44721,43.48593 z"
       sodipodi:nodetypes="cccsccscsccscc" />
    <rect
       style="font-variation-settings:normal;vector-effect:none;fill:none;fill-opacity:1;fill-rule:evenodd;stroke:#008000;stroke-width:0.24626;stroke-linecap:round;stroke-linejoin:bevel;stroke-miterlimit:4;stroke-dasharray:none;stroke-dashoffset:0;stroke-opacity:1;-inkscape-stroke:none;stop-color:#000000"
       id="rect645"
       width="40.189335"
       height="155.93703"
       x="84.998001"
       y="-6.7179904"
       transform="matrix(0.94214893,0.33519457,-0.31775846,0.9481717,0,0)" />
    <path
       style="fill:none;stroke:#008000;stroke-width:0.273956;stroke-linecap:round;stroke-linejoin:round"
       id="path647"
       sodipodi:type="arc"
       sodipodi:cx="46.595562"
       sodipodi:cy="-198.8383"
       sodipodi:rx="8.6510143"
       sodipodi:ry="10.641601"
       sodipodi:start="0"
       sodipodi:end="2.4966427"
       sodipodi:arc-type="slice"
       d="m 55.246576,-198.8383 a 8.6510143,10.641601 0 0 1 -5.909378,10.09307 8.6510143,10.641601 0 0 1 -9.65492,-3.69578 l 6.913284,-6.39729 z"
       transform="matrix(-0.56547435,0.82476588,-0.89516403,-0.44573688,0,0)"
       inkscape:transform-center-x="2.1326763"
       inkscape:transform-center-y="-0.21788094" />
    <g
       id="g661"
       transform="matrix(2.8507406,0,0,2.8507406,-390.49953,-194.19684)">
      <rect
         style="font-variation-settings:normal;opacity:1;vector-effect:none;fill:none;fill-opacity:1;fill-rule:evenodd;stroke:#0000ff;stroke-width:0.0557754;stroke-linecap:round;stroke-linejoin:bevel;stroke-miterlimit:4;stroke-dasharray:none;stroke-dashoffset:0;stroke-opacity:1;-inkscape-stroke:none;stop-color:#000000;stop-opacity:1"
         id="rect655"
         width="9.9442244"
         height="5.9442244"
         x="161.59239"
         y="141.60199" />
      <rect
         style="font-variation-settings:normal;opacity:1;vector-effect:none;fill:none;fill-opacity:1;fill-rule:evenodd;stroke:#a05a2c;stroke-width:0.0856985;stroke-linecap:round;stroke-linejoin:bevel;stroke-miterlimit:4;stroke-dasharray:none;stroke-dashoffset:0;stroke-opacity:1;-inkscape-stroke:none;stop-color:#000000;stop-opacity:1"
         id="rect657"
         width="12.854594"
         height="10.855975"
         x="160.13721"
         y="140.32256" />
    </g>
    <g
       id="g667"
       transform="matrix(2.8507406,0,0,-2.8507406,-349.9368,636.79714)">
      <rect
         style="font-variation-settings:normal;opacity:1;vector-effect:none;fill:none;fill-opacity:1;fill-rule:evenodd;stroke:#0000ff;stroke-width:0.0557754;stroke-linecap:round;stroke-linejoin:bevel;stroke-miterlimit:4;stroke-dasharray:none;stroke-dashoffset:0;stroke-opacity:1;-inkscape-stroke:none;stop-color:#000000;stop-opacity:1"
         id="rect663"
         width="9.9442244"
         height="5.9442244"
         x="161.59239"
         y="141.60199" />
      <rect
         style="font-variation-settings:normal;opacity:1;vector-effect:none;fill:none;fill-opacity:1;fill-rule:evenodd;stroke:#a05a2c;stroke-width:0.0856985;stroke-linecap:round;stroke-linejoin:bevel;stroke-miterlimit:4;stroke-dasharray:none;stroke-dashoffset:0;stroke-opacity:1;-inkscape-stroke:none;stop-color:#000000;stop-opacity:1"
         id="rect665"
         width="12.854594"
         height="10.855975"
         x="160.13721"
         y="140.32256" />
    </g>
    <path
       style="fill:none;stroke:#ff6600;stroke-width:0.264583px;stroke-linecap:butt;stroke-linejoin:miter;stroke-opacity:1"
       d="m 105.80469,39.858587 4.22691,9.167463"
       id="path490" />
    <path
       style="fill:none;stroke:#ff6600;stroke-width:0.264583px;stroke-linecap:butt;stroke-linejoin:miter;stroke-opacity:1"
       d="m 105.80469,39.858587 4.22691,9.167463"
       id="path492" />
    <path
       style="fill:none;stroke:#ff6600;stroke-width:0.264583px;stroke-linecap:butt;stroke-linejoin:miter;stroke-opacity:1"
       d="m 105.80469,39.858587 4.22691,9.167463"
       id="path494" />
    <path
       style="fill:none;stroke:#ff6600;stroke-width:0.264583px;stroke-linecap:butt;stroke-linejoin:miter;stroke-opacity:1"
       d="m 105.80469,39.858587 4.22691,9.167463"
       id="path496" />
    <path
       style="fill:none;stroke:#ff6600;stroke-width:0.264583px;stroke-linecap:butt;stroke-linejoin:miter;stroke-opacity:1"
       d="m 105.80469,39.858587 4.22691,9.167463"
       id="path498" />
    <path
       style="fill:none;stroke:#ff6600;stroke-linecap:butt;stroke-linejoin:miter;stroke-opacity:1"
       d="M 0,0 0,0"
       id="path500" />
  </g>
</svg>
